<svg xmlns="http://www.w3.org/2000/svg" width="520" height="274" viewBox="0 0 520 274">
<rect width="100%" height="100%" rx="16" fill="#0b1220"/>
<rect x="1" y="1" width="518" height="272" rx="15" fill="none" stroke="#1f2937"/>
<text x="24" y="38" fill="#e5e7eb" font-size="20" font-weight="700" font-family="Segoe UI, Arial">Monthly Downloads</text>
<text x="24" y="56" fill="#94a3b8" font-size="12" font-family="Segoe UI, Arial">6 months · 20,675 total downloads</text>
<text x="24" y="88" fill="#e2e8f0" font-size="13" font-family="Segoe UI, Arial">2026-01</text>
<text x="500" y="88" fill="#cbd5e1" font-size="13" text-anchor="end" font-family="Segoe UI, Arial">6,467</text>
<rect x="110" y="78" width="340" height="10" rx="5" fill="#1f2937"/>
<rect x="106" y="78" width="340" height="10" rx="5" fill="#2563eb"/>
<text x="24" y="120" fill="#e2e8f0" font-size="13" font-family="Segoe UI, Arial">2026-02</text>
<text x="500" y="120" fill="#cbd5e1" font-size="13" text-anchor="end" font-family="Segoe UI, Arial">5,550</text>
<rect x="110" y="110" width="340" height="10" rx="5" fill="#1f2937"/>
<rect x="106" y="110" width="291" height="10" rx="5" fill="#0ea5e9"/>
<text x="24" y="152" fill="#e2e8f0" font-size="13" font-family="Segoe UI, Arial">2026-03</text>
<text x="500" y="152" fill="#cbd5e1" font-size="13" text-anchor="end" font-family="Segoe UI, Arial">2,629</text>
<rect x="110" y="142" width="340" height="10" rx="5" fill="#1f2937"/>
<rect x="106" y="142" width="138" height="10" rx="5" fill="#06b6d4"/>
<text x="24" y="184" fill="#e2e8f0" font-size="13" font-family="Segoe UI, Arial">2026-04</text>
<text x="500" y="184" fill="#cbd5e1" font-size="13" text-anchor="end" font-family="Segoe UI, Arial">3,785</text>
<rect x="110" y="174" width="340" height="10" rx="5" fill="#1f2937"/>
<rect x="106" y="174" width="198" height="10" rx="5" fill="#14b8a6"/>
<text x="24" y="216" fill="#e2e8f0" font-size="13" font-family="Segoe UI, Arial">2026-05</text>
<text x="500" y="216" fill="#cbd5e1" font-size="13" text-anchor="end" font-family="Segoe UI, Arial">2,060</text>
<rect x="110" y="206" width="340" height="10" rx="5" fill="#1f2937"/>
<rect x="106" y="206" width="108" height="10" rx="5" fill="#22c55e"/>
<text x="24" y="248" fill="#e2e8f0" font-size="13" font-family="Segoe UI, Arial">2026-06</text>
<text x="500" y="248" fill="#cbd5e1" font-size="13" text-anchor="end" font-family="Segoe UI, Arial">184</text>
<rect x="110" y="238" width="340" height="10" rx="5" fill="#1f2937"/>
<rect x="106" y="238" width="9" height="10" rx="5" fill="#84cc16"/>
</svg>