<svg height="512" viewBox="0 0 128 128" width="512" xmlns="http://www.w3.org/2000/svg">
    <g>
        <path
            d="m106.25 67.75-12.07-.75 5.82 7.25-14 .42 4.5 10.16-10.25 10.67-9.23-7.88-7.02 7.88-7.02-7.87-9.23 7.87-10.25-10.67 4.5-10.16-14-.42 5.82-7.25-12.07.75 3.87-8.13-7.86-3.07 9.24-7.57 3.9-18.59-2.78-10.64 10.65 3.04-.77-10.04 9.58 5.17 2.59-8.59 7.41 4.67 6.42-7.5 6.42 7.5 7.41-4.67 2.59 8.59 9.58-5.17-.77 10.04 10.65-3.04-2.78 10.64 3.9 18.59 9.24 7.57-7.86 3.07z"
            fill="#fb637b" />
        <path
            d="m68.163 22.338a1.745 1.745 0 0 1 -1.33-.611l-3.466-4.048a1.75 1.75 0 0 1 2.658-2.279l3.466 4.048a1.75 1.75 0 0 1 -1.328 2.888z"
            fill="#fd3e63" />
        <g>
            <g>
                <path d="m112.246 24.6-23.491 6.289-48.098 55.927 9.373 9.373 55.927-48.098z" fill="#d6d6d6" />
                <path
                    d="m44.047 94.549a1.75 1.75 0 0 1 -1.237-2.987l53.949-53.949a1.749 1.749 0 1 1 2.474 2.474l-53.949 53.949a1.743 1.743 0 0 1 -1.237.513z"
                    fill="#e8e8ee" />
                <path d="m26.585 116.978-6.717-6.717 19.936-21.705 8.486 8.486z" fill="#385b60" />
                <g fill="#537980">
                    <path d="m20.124 105.722h6v16h-6z" transform="matrix(.707 -.707 .707 .707 -73.641 49.66)" />
                    <path d="m45.271 100.387-8.812-8.812a9 9 0 0 1 0-12.728l21.541 21.54a9 9 0 0 1 -12.729 0z" />
                </g>
            </g>
            <g>
                <path d="m15.754 24.6 23.491 6.289 48.098 55.927-9.373 9.373-55.927-48.098z" fill="#e8e8ee" />
                <path
                    d="m83.953 94.549a1.743 1.743 0 0 1 -1.237-.513l-53.949-53.949a1.749 1.749 0 1 1 2.474-2.474l53.949 53.949a1.75 1.75 0 0 1 -1.237 2.987z"
                    fill="#d6d6d6" />
                <path d="m101.415 116.978 6.717-6.717-19.936-21.705-8.486 8.486z" fill="#385b60" />
                <g fill="#537980">
                    <path d="m96.876 110.722h16v6h-16z" transform="matrix(.707 -.707 .707 .707 -49.696 107.467)" />
                    <path d="m82.729 100.387 8.812-8.812a9 9 0 0 0 0-12.728l-21.541 21.54a9 9 0 0 0 12.729 0z" />
                </g>
            </g>
        </g>
    </g>
</svg>